<?xml version="1.0" encoding="utf-8"?>
<!-- Generator: Adobe Illustrator 16.0.0, SVG Export Plug-In . SVG Version: 6.00 Build 0)  -->
<!DOCTYPE svg PUBLIC "-//W3C//DTD SVG 1.1//EN" "http://www.w3.org/Graphics/SVG/1.1/DTD/svg11.dtd">
<svg version="1.1" xmlns="http://www.w3.org/2000/svg" xmlns:xlink="http://www.w3.org/1999/xlink" x="0px" y="0px" width="470px"
	 height="135px" viewBox="0 0 470 135" enable-background="new 0 0 470 135" xml:space="preserve">
<g id="图层_9">
	<g>
		<rect x="55.797" y="31.195" fill="#FFFFFF" width="412.997" height="101"/>
		<path fill="#FFFFFF" d="M468.294,31.695v100H56.297v-100H468.294 M469.294,30.695h-1H56.297h-1v1v100v1h1h411.997h1v-1v-100
			V30.695L469.294,30.695z"/>
	</g>
</g>
<g id="springfield">
	<g>
		<path d="M39.596,134.677c-0.218,0-0.438-0.019-0.657-0.061l-0.107,0.009c-0.943,0-1.789-0.395-2.605-0.775l-0.566-0.26l0.01-0.172
			c0.066-1.131,0.531-2.197,1.31-3.005c0.219-0.23,0.279-0.561,0.342-0.91c0.053-0.292,0.108-0.595,0.26-0.872
			c0.326-0.654,0.433-1.434,0.537-2.188c0.028-0.206,0.057-0.41,0.088-0.611c0.114-0.929,0.288-1.871,0.455-2.782
			c0.177-0.963,0.36-1.959,0.473-2.941l0.09-0.221c0.246-0.515,0.5-1.047,0.543-1.628l-0.173-0.344l0.076-0.12
			c0.261-0.412,0.286-0.903,0.243-1.562l-0.005-0.079l0.041-0.067c0.15-0.247,0.149-0.531,0.147-0.86
			c-0.001-0.258-0.002-0.524,0.073-0.795c0.045-0.112,0-0.196-0.114-0.368l-0.164-0.259l0.13-0.14c0,0,0.156-0.183,0.179-0.208
			c-0.005-0.394-0.076-0.791-0.206-1.155l-0.045-0.127l0.082-0.108c0.137-0.18,0.091-0.378,0.005-0.686
			c-0.081-0.288-0.179-0.64,0.004-0.982c-0.132-0.632-0.281-1.241-0.81-1.523l-0.125-0.067l-0.006-0.143
			c-0.016-0.355-0.236-0.642-0.47-0.943c-0.285-0.369-0.605-0.784-0.55-1.366c-0.212-0.216-0.431-0.419-0.649-0.609l-0.082-0.07
			l-0.004-0.108c-0.029-0.74-0.204-1.227-0.552-1.531c-0.228-0.196-0.271-0.471-0.305-0.691c-0.032-0.202-0.056-0.33-0.152-0.409
			c-0.313-0.171-0.41-0.525-0.487-0.812c-0.076-0.278-0.131-0.454-0.301-0.543c-0.14-0.048-0.315-0.106-0.491-0.165
			c-0.896-0.298-1.821-0.605-2.459-1.372c-0.145-0.404-0.008-0.676,0.124-0.894l-0.164-0.023c-1.456-0.204-2.961-0.415-4.388-0.96
			c-0.59-0.181-1.125-0.502-1.642-0.813c-0.44-0.265-0.856-0.515-1.312-0.688c-1.106-0.554-2.237-0.938-3.303-1.287
			c-0.022,0.001-0.045,0.001-0.067,0.001c-0.46,0-0.935-0.119-1.395-0.235c-0.475-0.119-0.924-0.232-1.387-0.232
			c-0.106,0-0.212,0.006-0.32,0.02l-1.31,0.06c-1.54,0.072-3.132,0.146-4.701,0.146c-0.663,0-1.326-0.013-1.987-0.044l-0.187-0.005
			c-1.592-0.038-3.238-0.078-4.611-0.96l-0.071-0.045l-0.029-0.08c-0.017-0.046-0.03-0.11-0.042-0.174l-0.046-0.116l0.047-0.192
			c0.179-0.294,0.295-0.609,0.418-0.944c0.07-0.19,0.14-0.38,0.221-0.564c-0.073-0.12-0.108-0.257-0.101-0.393
			c-0.519-0.421-1.024-0.86-1.528-1.299L4.07,89.676c-0.081-0.12-0.106-0.206-0.117-0.339c-0.166-0.239-0.146-0.548,0.058-0.768
			c0.263-0.483,0.719-0.877,1.161-1.257c0.132-0.114,0.263-0.228,0.39-0.344c-0.268-0.287-0.575-0.547-0.874-0.799
			c-0.515-0.436-1.047-0.886-1.417-1.497c-0.152-0.168-0.312-0.395-0.47-0.621c-0.342-0.487-0.665-0.948-1.187-1.153l-0.239-0.094
			l0.1-0.235c0.21-0.498,0.5-0.9,0.861-1.195c3.142-2.892,6.688-5.38,10.118-7.787c0.769-0.54,1.538-1.079,2.303-1.624
			c-0.022-0.12-0.04-0.24-0.046-0.359l-0.007-0.121l0.091-0.08c0.213-0.188,0.437-0.369,0.661-0.549
			c0.608-0.491,1.183-0.955,1.578-1.587c1.88-2.371,3.722-4.737,5.491-7.055c-0.428-0.628-0.546-1.353-0.661-2.055
			c-0.046-0.284-0.092-0.568-0.159-0.844c-0.053-0.501-0.152-0.976-0.248-1.436c-0.172-0.827-0.351-1.682-0.252-2.569l0.01-0.086
			l0.061-0.062c0.991-1,1.895-2.127,2.769-3.217c0.844-1.052,1.716-2.141,2.678-3.13c0.56-0.559,1.037-1.201,1.423-1.912
			c-0.183-1.06-0.19-2.069-0.022-3.001c0.001-1.596-0.092-3.043-0.291-4.381l-0.016-0.103l0.062-0.083
			c0.542-0.731,1.241-1.44,2.076-2.109l0.078-0.062l0.099,0.008c0.256,0.021,0.5,0.091,0.737,0.158
			c0.16,0.046,0.321,0.093,0.483,0.121c0.157-0.079,0.315-0.119,0.47-0.119c0.697,0,1.127,0.756,1.403,1.453
			c0.143-0.125,0.278-0.268,0.413-0.417c-0.001-0.585,0.214-1.159,0.629-1.673c-0.286-1.466-0.513-3.017-0.079-4.509l0.021-0.072
			l0.057-0.049c0.483-0.411,1.004-0.783,1.507-1.143c0.534-0.382,1.085-0.775,1.579-1.209c-0.682-0.776-0.992-1.923-0.844-3.146
			c-1.538-1.143-1.957-3.746-1.686-5.731l0.011,0.001l-0.011-0.002c0.04-0.284,0.104-0.563,0.169-0.843
			c0.04-0.174,0.081-0.349,0.115-0.524c-0.563-1.077-0.572-2.452-0.029-4.089l0.033-0.1c0.638-1.941,1.298-3.948,2.68-5.544
			c0.862-0.97,2.633-2.592,4.834-2.592c0.098,0,0.196,0.003,0.295,0.01c0.697-0.159,1.468-0.243,2.222-0.243
			c2.341,0,4.289,0.819,5.486,2.306l0.181,0.219c0.791,0.957,1.607,1.944,2.101,3.128l0.132-0.025
			c0.698-0.134,1.419-0.273,2.15-0.273c0.4,0,0.766,0.042,1.114,0.126c1.526-1.647,3.58-4.228,3.813-4.523
			c1.097-1.383,1.86-2.032,2.458-2.085l0.737-0.901c0.447-0.548,0.582-0.713,1.184-1.398l0.074-0.085h0.113
			c0.291,0,0.573,0.117,0.755,0.314c0.16,0.171,0.234,0.388,0.217,0.625l-0.006,0.078l-0.049,0.061
			c-0.398,0.492-0.689,0.824-1.044,1.228c-0.287,0.326-0.615,0.701-1.077,1.248c-0.046,0.228,0.004,0.476,0.057,0.738
			c0.039,0.194,0.077,0.388,0.083,0.579c-0.042,0.195-0.093,0.311-0.145,0.426c-0.075,0.166-0.139,0.308-0.128,0.455l0.007,0.092
			L63.3,9.316c-0.163,0.221-0.343,0.438-0.529,0.644l-0.084,0.093c0,0-0.128-0.011-0.13-0.011c-0.304,0-0.464,0.199-0.698,0.525
			c-0.081,0.113-0.161,0.225-0.248,0.323c0.025,0.131,0.101,0.261,0.179,0.397c0.154,0.266,0.345,0.598,0.178,1.017
			c-0.034,0.268-0.234,0.653-0.914,0.653c-0.179,0-0.372-0.025-0.554-0.05c-0.094-0.013-0.186-0.025-0.27-0.032
			c-0.699,0.779-1.396,1.64-2.125,2.625l0.395,0.757l-0.227,0.113c-0.519,0.258-0.416,0.806-0.213,1.552
			c0.083,0.234,0.07,0.41-0.022,0.553c-0.08,0.123-0.199,0.197-0.313,0.241c0.541,1.464,1.45,2.812,2.643,3.913
			c0.568,0.524,2.156,0.841,2.833,0.977l1.371,0.146l0.125,0.03c0.063,0.013,0.125,0.028,0.183,0.053l0.43,0.188l-0.395,0.252
			c-0.068,0.043-0.137,0.077-0.207,0.11l-0.114,0.046l-1.286,0.266c-0.722-0.007-1.385-0.177-1.946-0.342
			c-0.23-0.041-0.448-0.112-0.658-0.203c1.03,0.735,2.063,1.515,2.908,2.497c1.449,1.526,2.557,3.266,3.538,4.918l0.224,0.377H60.21
			l-0.075-0.102c-0.736-1-1.281-1.966-1.668-2.956c-0.229-0.522-0.552-0.998-0.894-1.501c-0.282-0.416-0.573-0.845-0.807-1.307
			c0.038,0.219,0.114,0.437,0.194,0.663c0.085,0.245,0.174,0.498,0.219,0.768c0.219,0.674,0.341,1.415,0.459,2.132
			c0.109,0.66,0.221,1.343,0.416,1.979l0.099,0.323h-1.605v13.953l-0.023,0.05c-0.292,0.622-0.61,1.071-1.001,1.413l-0.056,0.048
			l-0.073,0.011c-0.161,0.023-0.321,0.032-0.482,0.032c-0.304,0-0.609-0.034-0.916-0.068c-0.158-0.018-0.316-0.036-0.475-0.048
			c0.305,1.055,0.638,2.085,1.28,2.928c0.355,0.803,0.777,1.53,1.184,2.233c0.179,0.31,0.359,0.619,0.531,0.932l0.031,0.056v7.885
			l-0.483-1.238c-0.481-1.235-1.003-2.548-1.58-3.875c-0.072,0.278-0.153,0.561-0.268,0.833c-0.173,0.327-0.047,0.651,0.098,1.026
			c0.099,0.256,0.202,0.521,0.219,0.806l0.007,0.113c0,0-0.234,0.232-0.307,0.31c0.069,0.587,0.285,1.138,0.514,1.719
			c0.195,0.498,0.398,1.013,0.5,1.557c0.175,0.758,0.444,1.515,0.72,2.252c0.029-0.096,0.061-0.192,0.094-0.287l0.486-1.42v39.811
			l-0.236,0.014c-0.302,0.017-0.606,0.023-0.911,0.023c-0.769,0-1.545-0.045-2.318-0.089c-0.754-0.043-1.505-0.086-2.24-0.086
			l-0.143,0.002c-0.01,0.076-0.021,0.152-0.024,0.201l-0.014,0.182l-0.177,0.043c-0.193,0.047-0.398,0.069-0.625,0.069
			c-0.279,0-0.558-0.035-0.835-0.07c-0.257-0.032-0.513-0.065-0.769-0.065c-0.082,0-0.164,0.004-0.246,0.013
			c-0.133,1.831-0.605,3.623-1.062,5.358c-0.218,0.829-0.437,1.658-0.619,2.492c0,0.932,0.937,1.518,1.764,2.034l0.191,0.12
			c0.514,0.204,0.863,0.643,1.201,1.066c0.14,0.176,0.28,0.354,0.437,0.513c0.19,0.306,0.409,0.535,0.641,0.777
			c0.438,0.459,0.892,0.933,0.939,1.658c-0.489,1.785-1.771,2.924-3.012,4.025c-0.515,0.457-1.047,0.929-1.503,1.429
			c-0.145,0.529-0.16,1.114-0.163,1.623l0,0.136l-0.114,0.073c-0.341,0.22-0.713,0.362-1.073,0.499
			c-0.208,0.079-0.416,0.158-0.613,0.252v0.003c0.029,0.478,0.058,0.971-0.133,1.423c-0.231,0.667-0.207,1.363-0.182,2.102
			c0.014,0.406,0.029,0.826-0.004,1.244l-0.007,0.096l-0.07,0.066c-0.616,0.581-0.459,1.514-0.32,2.337l0.05,0.301l-0.124,0.091
			c-0.132,0.098-0.263,0.203-0.394,0.309c-0.451,0.364-0.918,0.74-1.524,0.868c-0.187,0.049-0.387,0.106-0.588,0.164
			C41.038,134.472,40.325,134.677,39.596,134.677z M31.963,49.299c-0.178,0.208-0.375,0.403-0.571,0.598
			c-0.453,0.449-0.88,0.873-1.074,1.444c-0.118,0.312-0.263,0.606-0.409,0.901c-0.05,0.101-0.1,0.201-0.147,0.301
			c1.101-1.093,2.183-2.033,3.28-2.848c-0.209-0.115-0.45-0.191-0.7-0.27C32.215,49.386,32.087,49.345,31.963,49.299z
			 M36.313,43.771c0.07-0.27,0.103-0.575,0.102-0.939c-0.056-0.037-0.112-0.075-0.167-0.114c-0.127-0.089-0.242-0.169-0.356-0.21
			c0.046,0.407,0.091,0.824,0.101,1.244C36.098,43.76,36.206,43.766,36.313,43.771z M40.046,22.483
			c-0.013,0.235-0.031,0.472-0.049,0.709c-0.08,1.021-0.161,2.073,0.222,3.009c0.983-0.559,1.468-1.75,1.69-2.546
			C41.268,23.332,40.616,22.964,40.046,22.483z M35.319,20.901c-0.055,1.324,0.035,3.543,1.116,4.644
			c-0.024-0.638-0.042-1.306-0.033-1.984c-0.008-0.645-0.235-1.247-0.476-1.883c-0.165-0.437-0.333-0.883-0.428-1.353
			C35.424,20.502,35.365,20.694,35.319,20.901z M51.606,24.373c0.097,0.206,0.252,0.371,0.455,0.488
			c-0.12-0.152-0.262-0.294-0.409-0.441C51.637,24.404,51.622,24.388,51.606,24.373z"/>
		<path fill="#FFFFFF" d="M64.684,3.647c0.364,0,0.754,0.244,0.723,0.671c-0.728,0.898-1.095,1.259-2.156,2.517
			c-0.129,0.477,0.104,0.967,0.12,1.441c-0.083,0.304-0.297,0.564-0.272,0.892c-0.157,0.214-0.333,0.425-0.513,0.624
			c-0.025-0.002-0.05-0.003-0.074-0.003c-0.578,0-0.795,0.654-1.159,1.011c0,0.528,0.599,0.871,0.384,1.411
			c-0.06,0.398-0.345,0.496-0.681,0.496c-0.314,0-0.671-0.085-0.929-0.088c-0.82,0.906-1.589,1.874-2.313,2.859
			c0.117,0.228,0.235,0.445,0.351,0.669c-0.776,0.386-0.494,1.28-0.321,1.925c0.123,0.314-0.203,0.45-0.447,0.461
			c0.559,1.664,1.542,3.116,2.804,4.28c0.612,0.564,2.152,0.878,2.954,1.038c0.014,0.003,0.028,0.004,0.042,0.004
			c0.021,0,0.042-0.002,0.063-0.004l1.286,0.15c0.078,0.026,0.162,0.031,0.237,0.064c-0.077,0.049-0.158,0.083-0.237,0.123
			l-1.286,0.266c-0.616-0.011-1.245-0.167-1.824-0.337c-0.834-0.15-1.485-0.702-2.202-1.093c-0.042,0.067-0.125,0.198-0.168,0.262
			c1.505,1.117,3.131,2.099,4.36,3.528c1.393,1.467,2.485,3.153,3.512,4.882h-6.599c-0.659-0.896-1.231-1.861-1.636-2.898
			c-0.464-1.058-1.279-1.917-1.773-2.956c-0.104-0.022-0.207-0.032-0.31-0.032c-0.042,0-0.085,0.002-0.127,0.005
			c0.005,0.608,0.344,1.146,0.442,1.738c0.433,1.346,0.472,2.802,0.882,4.143h-1.518v14.147c-0.233,0.498-0.518,0.963-0.939,1.331
			c-0.148,0.021-0.297,0.03-0.447,0.03c-0.571,0-1.148-0.125-1.728-0.133c0.335,1.17,0.67,2.363,1.417,3.347
			c0.472,1.09,1.122,2.093,1.696,3.134v6.491c-0.597-1.53-1.205-3.05-1.875-4.544c-0.14,0.499-0.234,1.016-0.436,1.497
			c-0.346,0.65,0.258,1.287,0.298,1.945c-0.107,0.106-0.212,0.211-0.311,0.32c0.101,1.199,0.809,2.242,1.028,3.409
			c0.209,0.911,0.541,1.79,0.87,2.662c0.057-0.029,0.191-0.084,0.261-0.118c0.046-0.184,0.104-0.365,0.165-0.544v38.073
			c-0.297,0.017-0.597,0.023-0.897,0.023c-1.52,0-3.07-0.175-4.558-0.175c-0.121,0-0.241,0.001-0.361,0.004
			c-0.014,0.111-0.047,0.327-0.055,0.431c-0.189,0.045-0.378,0.063-0.567,0.063c-0.536,0-1.071-0.136-1.604-0.136
			c-0.161,0-0.322,0.013-0.482,0.045c-0.161,2.737-1.105,5.351-1.688,8.015c-0.007,1.208,1.176,1.856,2.065,2.419
			c0.714,0.29,1.069,1.008,1.593,1.543c0.466,0.784,1.444,1.283,1.509,2.277c-0.663,2.351-2.944,3.597-4.49,5.313
			c-0.165,0.563-0.185,1.17-0.188,1.746c-0.562,0.362-1.236,0.507-1.809,0.812c0.027,0.503,0.085,1.03-0.104,1.478
			c-0.391,1.125-0.115,2.283-0.205,3.424c-0.755,0.713-0.515,1.832-0.37,2.709c-0.574,0.422-1.104,0.982-1.821,1.133
			c-0.873,0.228-1.766,0.563-2.668,0.563c-0.203,0-0.406-0.017-0.61-0.056c-0.051,0.003-0.103,0.004-0.154,0.004
			c-1.043,0-1.99-0.527-2.912-0.942c0.062-1.058,0.499-2.077,1.24-2.846c0.472-0.499,0.33-1.268,0.642-1.836
			c0.44-0.883,0.499-1.919,0.653-2.879c0.236-1.921,0.708-3.813,0.929-5.735c0.286-0.604,0.605-1.217,0.639-1.93
			c-0.036-0.069-0.105-0.209-0.14-0.277c0.319-0.505,0.321-1.107,0.281-1.712c0.319-0.526,0.088-1.147,0.248-1.718
			c0.107-0.25-0.076-0.456-0.205-0.664c0.066-0.071,0.178-0.212,0.246-0.283c0.006-0.443-0.067-0.906-0.22-1.334
			c0.431-0.567-0.321-1.213,0.075-1.773c-0.14-0.673-0.289-1.433-0.957-1.79c-0.042-0.948-1.191-1.384-1.005-2.386
			c-0.245-0.254-0.497-0.491-0.75-0.711c-0.024-0.621-0.149-1.281-0.637-1.709c-0.325-0.281-0.12-0.825-0.464-1.106
			c-0.521-0.292-0.288-1.098-0.83-1.383c-1.016-0.364-2.16-0.617-2.875-1.476c-0.111-0.354,0.212-0.638,0.325-0.931
			c-1.64-0.235-3.289-0.422-4.855-1.02c-1.069-0.328-1.921-1.109-2.955-1.501c-1.067-0.536-2.18-0.921-3.314-1.291
			c-0.012,0-0.024,0-0.037,0c-0.982,0-1.903-0.479-2.89-0.479c-0.116,0-0.233,0.007-0.351,0.021
			c-1.987,0.085-3.986,0.203-5.98,0.203c-0.659,0-1.317-0.013-1.975-0.044c-1.597-0.04-3.306-0.046-4.674-0.925
			c-0.026-0.071-0.036-0.202-0.062-0.268c0.323-0.531,0.455-1.129,0.715-1.672c-0.118-0.116-0.179-0.288-0.118-0.461
			c-0.815-0.653-1.594-1.356-2.386-2.033c-0.025-0.046-0.032-0.177-0.035-0.242c-0.139-0.148-0.143-0.354-0.004-0.503
			c0.403-0.719,1.141-1.185,1.715-1.757c-0.744-0.889-1.82-1.442-2.424-2.44c-0.57-0.648-0.931-1.544-1.779-1.877
			c0.177-0.421,0.435-0.81,0.789-1.099c3.875-3.564,8.267-6.449,12.539-9.494c-0.033-0.162-0.064-0.323-0.073-0.483
			c0.787-0.695,1.716-1.279,2.285-2.191c1.885-2.375,3.747-4.765,5.591-7.185c-0.672-0.851-0.644-1.957-0.889-2.96
			c-0.133-1.315-0.643-2.583-0.494-3.918c1.955-1.973,3.497-4.34,5.448-6.349c0.601-0.6,1.108-1.295,1.505-2.044
			c-0.179-0.99-0.217-2.005-0.038-2.999c0.005-1.488-0.071-2.989-0.29-4.462c0.572-0.771,1.282-1.463,2.032-2.063
			c0.432,0.035,0.853,0.232,1.286,0.29c0.152-0.089,0.293-0.129,0.424-0.129c0.669,0,1.081,1.019,1.287,1.606
			c0.292-0.19,0.54-0.455,0.782-0.726c-0.03-0.635,0.23-1.22,0.645-1.698c-0.292-1.482-0.538-3.027-0.107-4.508
			c1.056-0.899,2.279-1.595,3.283-2.53c-0.863-0.821-1.109-2.127-0.935-3.275c-1.594-1.057-1.954-3.764-1.706-5.58
			c-0.072,1.673,0.109,4.26,1.638,5.216c-0.038-0.844-0.066-1.677-0.056-2.521c-0.017-1.42-1.007-2.608-0.981-4.033
			c-0.311,0.397-0.494,0.854-0.6,1.338c0.068-0.487,0.211-0.958,0.298-1.443c-0.679-1.222-0.478-2.689-0.053-3.97
			c0.642-1.951,1.292-3.974,2.664-5.56c1.169-1.315,2.811-2.505,4.646-2.505c0.092,0,0.185,0.003,0.278,0.009
			c0.719-0.154,1.479-0.242,2.238-0.242c1.997,0,4,0.607,5.291,2.212c0.887,1.076,1.819,2.15,2.321,3.475
			c0.794-0.148,1.616-0.333,2.438-0.333c0.399,0,0.799,0.043,1.195,0.156c1.4-1.495,3.345-3.912,3.928-4.647
			c0.985-1.242,1.788-1.994,2.341-1.994c0.014,0,0.027,0,0.041,0.001C63.923,4.537,63.826,4.623,64.684,3.647 M35.393,19.106
			c0.138-0.967,0.25-1.952,0.206-2.923C35.204,17.073,34.961,18.2,35.393,19.106 M40.099,26.54c1.177-0.515,1.81-1.839,2.104-3.018
			c-0.86-0.424-1.713-0.896-2.389-1.598C39.808,23.455,39.374,25.102,40.099,26.54 M52.572,25.289
			c-0.183-0.622-0.749-0.99-1.144-1.475c-0.038,0.064-0.128,0.191-0.173,0.251C51.362,24.772,51.892,25.192,52.572,25.289
			 M37.276,26.16c-0.044-0.247-0.105-0.46-0.213-0.74C37.071,25.898,37.105,25.962,37.276,26.16 M38.633,28.167
			c-0.54-0.514-0.756-1.433-1.392-1.759C37.528,27.065,37.744,28.146,38.633,28.167 M37.812,29.447
			c0.075-0.143,0.159-0.289,0.249-0.432c-0.603-0.524-0.892-1.263-1.174-1.983C36.996,27.875,37.052,28.903,37.812,29.447
			 M36.497,44.027c0.147-0.431,0.177-0.887,0.165-1.338c-0.304-0.166-0.566-0.458-0.918-0.458c-0.043,0-0.088,0.005-0.134,0.014
			c0.063,0.577,0.14,1.157,0.132,1.737C35.994,44.006,36.245,44.02,36.497,44.027 M29.122,53.557
			c1.344-1.415,2.774-2.728,4.349-3.865C33.033,49.3,32.407,49.224,31.887,49c-0.599,0.756-1.483,1.315-1.805,2.261
			C29.79,52.033,29.299,52.737,29.122,53.557 M64.684,3.147h-0.226l-0.149,0.17c-0.605,0.688-0.741,0.855-1.19,1.405
			c-0.167,0.205-0.378,0.464-0.674,0.824c-0.656,0.117-1.428,0.784-2.523,2.165c-0.229,0.288-2.195,2.76-3.704,4.403
			c-0.324-0.067-0.663-0.101-1.028-0.101c-0.731,0-1.443,0.133-2.132,0.265c-0.512-1.135-1.296-2.083-2.058-3.004l-0.183-0.221
			c-1.241-1.542-3.259-2.395-5.677-2.395c-0.749,0-1.515,0.081-2.276,0.239c-0.08-0.004-0.16-0.006-0.24-0.006
			c-2.299,0-4.132,1.675-5.019,2.673c-1.418,1.639-2.086,3.67-2.732,5.635L34.839,15.3c-0.552,1.664-0.55,3.077,0.004,4.203
			c-0.029,0.145-0.063,0.288-0.096,0.432c-0.064,0.278-0.131,0.566-0.173,0.865l0.022,0.004l-0.022-0.002
			c-0.273,2.007,0.145,4.631,1.67,5.876c-0.107,1.142,0.167,2.216,0.76,3.003c-0.43,0.361-0.893,0.691-1.377,1.037
			c-0.508,0.363-1.033,0.738-1.524,1.156l-0.114,0.097l-0.042,0.144c-0.438,1.506-0.229,3.051,0.052,4.515
			c-0.382,0.506-0.59,1.065-0.61,1.639c-0.026,0.027-0.051,0.055-0.077,0.082c-0.278-0.592-0.745-1.269-1.491-1.27
			c-0.168,0-0.336,0.037-0.502,0.108c-0.122-0.026-0.25-0.063-0.382-0.101c-0.249-0.071-0.505-0.145-0.786-0.167l-0.198-0.016
			l-0.155,0.125c-0.852,0.682-1.565,1.407-2.121,2.155l-0.124,0.166l0.03,0.205c0.195,1.314,0.289,2.736,0.285,4.345
			c-0.161,0.923-0.155,1.917,0.015,2.958c-0.367,0.66-0.815,1.257-1.336,1.777c-0.975,1.003-1.851,2.096-2.698,3.153
			c-0.87,1.084-1.77,2.207-2.751,3.197l-0.123,0.124l-0.02,0.173c-0.103,0.927,0.08,1.802,0.256,2.648
			c0.099,0.474,0.192,0.921,0.238,1.375l0.003,0.035l0.008,0.034c0.064,0.263,0.109,0.536,0.156,0.824
			c0.11,0.675,0.223,1.37,0.602,2.002c-1.735,2.273-3.54,4.589-5.366,6.889l-0.018,0.022l-0.015,0.024
			c-0.373,0.597-0.931,1.047-1.522,1.525c-0.227,0.183-0.454,0.366-0.669,0.557l-0.182,0.16l0.014,0.242
			c0.004,0.079,0.013,0.156,0.023,0.233c-0.723,0.513-1.448,1.022-2.174,1.532c-3.436,2.412-6.989,4.905-10.154,7.817
			c-0.372,0.302-0.686,0.736-0.912,1.272l-0.199,0.473l0.477,0.188c0.451,0.177,0.739,0.588,1.073,1.063
			c0.151,0.215,0.306,0.438,0.485,0.645c0.39,0.627,0.927,1.081,1.446,1.521c0.237,0.2,0.465,0.393,0.674,0.597
			c-0.063,0.056-0.127,0.11-0.191,0.166c-0.446,0.384-0.907,0.781-1.226,1.328c-0.225,0.281-0.25,0.661-0.074,0.967
			c0.013,0.118,0.036,0.217,0.084,0.306l0.044,0.082l0.071,0.06c0.25,0.214,0.498,0.43,0.746,0.646
			c0.469,0.407,0.952,0.827,1.444,1.229c0.009,0.097,0.033,0.192,0.072,0.282c-0.065,0.157-0.123,0.314-0.18,0.469
			c-0.119,0.322-0.231,0.628-0.396,0.9l-0.129,0.213l0.091,0.23l0.004,0.039c0.014,0.079,0.032,0.159,0.053,0.216l0.058,0.158
			l0.142,0.092c1.431,0.919,3.188,0.962,4.739,0.999l0.192,0.005c0.622,0.029,1.275,0.044,1.987,0.044
			c1.575,0,3.17-0.074,4.713-0.146l1.289-0.058c0.138-0.017,0.234-0.021,0.33-0.021c0.432,0,0.866,0.109,1.326,0.226
			c0.484,0.121,0.984,0.247,1.521,0.254c1.035,0.339,2.128,0.715,3.169,1.238l0.023,0.011l0.024,0.01
			c0.435,0.164,0.841,0.409,1.271,0.668c0.53,0.318,1.079,0.648,1.714,0.843c1.363,0.521,2.815,0.739,4.228,0.938
			c-0.073,0.194-0.109,0.424-0.028,0.685l0.029,0.095l0.063,0.076c0.684,0.821,1.688,1.155,2.573,1.449
			c0.159,0.053,0.317,0.105,0.472,0.16c0.063,0.049,0.099,0.163,0.158,0.377c0.081,0.297,0.19,0.699,0.579,0.949
			c0.023,0.041,0.043,0.166,0.055,0.244c0.039,0.247,0.092,0.585,0.39,0.843c0.29,0.254,0.438,0.685,0.464,1.351l0.008,0.217
			l0.164,0.142c0.193,0.168,0.38,0.341,0.558,0.517c-0.014,0.615,0.327,1.058,0.608,1.422c0.217,0.282,0.405,0.525,0.417,0.803
			l0.013,0.284l0.251,0.134c0.415,0.223,0.549,0.723,0.666,1.272c-0.173,0.402-0.061,0.803,0.017,1.081
			c0.082,0.292,0.097,0.389,0.037,0.467l-0.164,0.216l0.091,0.255c0.11,0.31,0.175,0.646,0.188,0.981
			c-0.002,0.003-0.005,0.007-0.008,0.01c-0.037,0.044-0.074,0.088-0.101,0.117l-0.261,0.28l0.202,0.324l0.066,0.104
			c0.028,0.042,0.068,0.103,0.088,0.142l-0.006,0.021c-0.085,0.304-0.084,0.602-0.083,0.863c0.001,0.304,0.002,0.543-0.111,0.73
			l-0.082,0.135l0.01,0.156c0.04,0.608,0.02,1.058-0.205,1.413l-0.151,0.239l0.128,0.254l0.053,0.105l0.023,0.047
			c-0.053,0.508-0.277,0.977-0.514,1.472l-0.068,0.143l-0.036,0.074l-0.009,0.082c-0.112,0.976-0.294,1.967-0.47,2.925
			c-0.168,0.916-0.342,1.862-0.458,2.807c-0.03,0.186-0.059,0.392-0.087,0.599c-0.101,0.733-0.205,1.492-0.518,2.119
			c-0.162,0.295-0.224,0.633-0.278,0.931c-0.059,0.324-0.11,0.605-0.279,0.784c-0.816,0.847-1.306,1.97-1.376,3.16l-0.02,0.344
			l0.313,0.142c0.135,0.061,0.27,0.124,0.406,0.188c0.841,0.393,1.712,0.799,2.711,0.799c0.04,0,0.079-0.001,0.119-0.002
			c0.207,0.036,0.424,0.054,0.645,0.054c0.765,0,1.495-0.21,2.2-0.413c0.199-0.057,0.397-0.114,0.594-0.166
			c0.642-0.134,1.154-0.547,1.606-0.912c0.128-0.103,0.255-0.206,0.385-0.301l0.247-0.182l-0.05-0.303l-0.025-0.151
			c-0.16-0.95-0.236-1.658,0.245-2.113l0.14-0.132l0.015-0.192c0.034-0.432,0.019-0.859,0.005-1.272
			c-0.025-0.714-0.048-1.388,0.174-2.026c0.179-0.42,0.174-0.896,0.15-1.335c0.141-0.061,0.29-0.117,0.443-0.176
			c0.372-0.142,0.756-0.288,1.119-0.522l0.228-0.146l0.001-0.271c0.002-0.475,0.016-1.016,0.139-1.501
			c0.436-0.472,0.926-0.907,1.443-1.366c1.268-1.125,2.578-2.289,3.078-4.06l0.023-0.083l-0.005-0.085
			c-0.053-0.816-0.561-1.348-1.008-1.815c-0.222-0.231-0.431-0.451-0.57-0.686l-0.03-0.051l-0.042-0.043
			c-0.144-0.147-0.278-0.315-0.42-0.493c-0.333-0.418-0.71-0.892-1.299-1.146l-0.156-0.098c-0.793-0.496-1.613-1.008-1.64-1.824
			c0.179-0.81,0.395-1.632,0.604-2.427c0.441-1.677,0.896-3.407,1.051-5.184c0.005,0,0.01-0.001,0.015-0.001
			c0.235,0,0.479,0.031,0.737,0.063c0.279,0.035,0.567,0.072,0.867,0.072c0.247,0,0.471-0.025,0.684-0.076l0.354-0.085l0.025-0.336
			c0.701,0.004,1.435,0.045,2.145,0.086c0.764,0.044,1.554,0.089,2.332,0.089c0.31,0,0.618-0.008,0.925-0.024l0.473-0.025v-0.474
			V64.668v-1.967v-2.659v-6.491v-0.129l-0.062-0.113c-0.174-0.314-0.354-0.625-0.534-0.936c-0.422-0.729-0.821-1.418-1.141-2.155
			l-0.024-0.056l-0.037-0.048c-0.549-0.722-0.867-1.601-1.134-2.492c0.034,0.004,0.068,0.008,0.103,0.011
			c0.305,0.035,0.621,0.07,0.944,0.07c0.185,0,0.354-0.011,0.518-0.035l0.146-0.021l0.112-0.098c0.418-0.365,0.756-0.84,1.063-1.495
			l0.047-0.101v-0.111V32.195h1.018h0.676l-0.198-0.646c-0.189-0.62-0.295-1.264-0.407-1.946c-0.101-0.614-0.205-1.245-0.375-1.864
			c0.281,0.417,0.541,0.822,0.732,1.259c0.387,0.991,0.943,1.976,1.691,2.994l0.15,0.204h0.253h6.599h0.878l-0.449-0.755
			c-0.988-1.664-2.105-3.418-3.579-4.971c-0.543-0.632-1.167-1.183-1.819-1.692c0.406,0.096,0.842,0.168,1.282,0.177l0.056,0.001
			l0.054-0.011l1.286-0.266l0.063-0.013l0.057-0.028l0.052-0.025c0.08-0.038,0.158-0.076,0.235-0.125l0.791-0.506l-0.861-0.374
			c-0.074-0.032-0.151-0.052-0.23-0.069c-0.017-0.003-0.033-0.006-0.049-0.011l-0.046-0.015l-0.053-0.007l-1.286-0.15l-0.054-0.006
			l-0.054,0.005c-0.558-0.112-2.153-0.431-2.67-0.908c-1.109-1.023-1.967-2.266-2.501-3.615c0.085-0.062,0.157-0.135,0.212-0.219
			c0.132-0.204,0.157-0.448,0.071-0.692l-0.017-0.063c-0.227-0.834-0.208-1.118,0.083-1.263l0.454-0.226l-0.232-0.451l-0.175-0.334
			l-0.031-0.06c0.661-0.887,1.296-1.672,1.932-2.386c0.044,0.005,0.089,0.012,0.135,0.018c0.181,0.024,0.386,0.052,0.587,0.052
			c0.877,0,1.106-0.565,1.166-0.864c0.175-0.507-0.058-0.91-0.214-1.181c-0.044-0.076-0.086-0.15-0.116-0.217
			c0.061-0.077,0.117-0.155,0.172-0.232c0.206-0.288,0.316-0.423,0.448-0.423l0.249,0.023l0.196-0.184
			c0.203-0.224,0.386-0.447,0.545-0.663l0.11-0.149l-0.014-0.185c-0.006-0.083,0.046-0.2,0.107-0.334
			c0.057-0.126,0.112-0.254,0.149-0.388l0.02-0.073L63.87,8.26c-0.007-0.219-0.048-0.423-0.087-0.62
			c-0.044-0.22-0.084-0.415-0.066-0.581c0.438-0.517,0.753-0.876,1.029-1.19c0.357-0.407,0.65-0.741,1.051-1.236l0.099-0.122
			l0.011-0.156c0.022-0.305-0.078-0.594-0.283-0.814C65.394,3.294,65.042,3.147,64.684,3.147L64.684,3.147z M36.159,24.72
			c-0.508-0.993-0.604-2.379-0.601-3.314c0.044,0.121,0.089,0.241,0.134,0.361c0.232,0.615,0.452,1.196,0.459,1.803
			C36.146,23.957,36.15,24.341,36.159,24.72L36.159,24.72z M40.347,25.816c-0.241-0.801-0.173-1.682-0.101-2.605
			c0.006-0.08,0.012-0.16,0.019-0.24c0.429,0.313,0.888,0.576,1.346,0.812C41.403,24.447,41.021,25.305,40.347,25.816L40.347,25.816
			z M30.545,51.449c0.001-0.004,0.003-0.007,0.004-0.011c0.181-0.532,0.588-0.936,1.019-1.363c0.157-0.156,0.317-0.315,0.471-0.484
			c0.076,0.025,0.152,0.049,0.228,0.074c0.096,0.03,0.19,0.06,0.281,0.092C31.879,50.271,31.213,50.833,30.545,51.449L30.545,51.449
			z M54.498,59.434c0.045-0.046,0.092-0.093,0.139-0.139l0.16-0.16l-0.013-0.226c-0.02-0.324-0.135-0.62-0.236-0.881
			c-0.159-0.412-0.219-0.612-0.12-0.798c0.035-0.083,0.067-0.165,0.097-0.245c0.47,1.109,0.902,2.202,1.307,3.239l0.777,1.992
			l-0.651,1.902c-0.183-0.518-0.348-1.039-0.468-1.561c-0.103-0.547-0.309-1.074-0.509-1.583
			C54.773,60.448,54.576,59.948,54.498,59.434L54.498,59.434z"/>
	</g>
</g>
<g id="yellow_stroke">
	
		<rect x="62.298" y="37.696" fill="none" stroke="#F4C430" stroke-linecap="square" stroke-miterlimit="10" width="86.001" height="86.001"/>
	
		<line fill="none" stroke="#F4C430" stroke-width="2" stroke-linecap="round" stroke-linejoin="round" stroke-miterlimit="10" x1="153.299" y1="66.695" x2="153.299" y2="66.695"/>
	
		<line fill="none" stroke="#F4C430" stroke-width="2" stroke-linecap="round" stroke-linejoin="round" stroke-miterlimit="10" x1="144.3" y1="78.697" x2="144.3" y2="78.697"/>
</g>
<g id="yellow_fill">
	<polygon fill="#F4C430" points="73.299,33.697 58.299,33.697 58.299,74.996 73.299,48.136 	"/>
	<polygon fill="#F4C430" points="141.297,61.695 113.299,33.697 113.299,86.695 98.299,86.695 98.299,33.697 88.299,33.697 
		88.299,52.042 58.299,105.768 58.299,121.764 132.298,82.882 132.298,75.699 147.298,75.699 147.298,91.949 75.447,129.693 
		154.3,129.693 154.3,69.698 141.297,69.698 	"/>
	<polygon fill="#F4C430" points="134.51,33.697 154.3,53.482 154.3,33.697 	"/>
</g>
<g id="black_dot_stroke">
	
		<line fill="none" stroke="#000000" stroke-width="2" stroke-linecap="round" stroke-linejoin="round" stroke-miterlimit="10" x1="273.294" y1="47.696" x2="273.294" y2="47.696"/>
	
		<line fill="none" stroke="#000000" stroke-width="2" stroke-linecap="round" stroke-linejoin="round" stroke-miterlimit="10" x1="435.091" y1="41.695" x2="435.091" y2="41.695"/>
	
		<line fill="none" stroke="#000000" stroke-width="2" stroke-linecap="round" stroke-linejoin="round" stroke-miterlimit="10" x1="189.3" y1="49.195" x2="189.3" y2="49.195"/>
	
		<line fill="none" stroke="#000000" stroke-width="2" stroke-linecap="round" stroke-linejoin="round" stroke-miterlimit="10" x1="373.304" y1="126.695" x2="373.304" y2="126.695"/>
</g>
<g id="black_stroke">
	
		<rect x="270.296" y="39.698" fill="none" stroke="#000000" stroke-linecap="square" stroke-miterlimit="10" width="90" height="83.999"/>
	
		<rect x="167.298" y="38.697" fill="none" stroke="#000000" stroke-linecap="square" stroke-miterlimit="10" width="85.996" height="85.996"/>
	
		<rect x="375.296" y="38.697" fill="none" stroke="#000000" stroke-linecap="square" stroke-miterlimit="10" width="88.008" height="85.996"/>
</g>
<g id="black_dash_stroke">
	<g>
		<g>
			<g>
				<polyline fill="none" stroke="#000000" stroke-linecap="square" stroke-miterlimit="10" points="56.297,122.695 56.297,131.695 
					65.297,131.695 				"/>
				
					<line fill="none" stroke="#000000" stroke-linecap="square" stroke-miterlimit="10" stroke-dasharray="18,2" x1="67.297" y1="131.695" x2="146.297" y2="131.695"/>
				<polyline fill="none" stroke="#000000" stroke-linecap="square" stroke-miterlimit="10" points="147.297,131.695 
					156.297,131.695 156.297,122.695 				"/>
				
					<line fill="none" stroke="#000000" stroke-linecap="square" stroke-miterlimit="10" stroke-dasharray="18,2" x1="156.297" y1="120.695" x2="156.297" y2="41.695"/>
				<polyline fill="none" stroke="#000000" stroke-linecap="square" stroke-miterlimit="10" points="156.297,40.695 156.297,31.695 
					147.297,31.695 				"/>
				
					<line fill="none" stroke="#000000" stroke-linecap="square" stroke-miterlimit="10" stroke-dasharray="18,2" x1="145.297" y1="31.695" x2="66.297" y2="31.695"/>
				<polyline fill="none" stroke="#000000" stroke-linecap="square" stroke-miterlimit="10" points="65.297,31.695 56.297,31.695 
					56.297,40.695 				"/>
				
					<line fill="none" stroke="#000000" stroke-linecap="square" stroke-miterlimit="10" stroke-dasharray="18,2" x1="56.297" y1="42.695" x2="56.297" y2="121.695"/>
			</g>
		</g>
		<g>
			<g>
				<polyline fill="none" stroke="#000000" stroke-linecap="square" stroke-miterlimit="10" points="160.296,122.695 
					160.296,131.695 169.296,131.695 				"/>
				
					<line fill="none" stroke="#000000" stroke-linecap="square" stroke-miterlimit="10" stroke-dasharray="18,2" x1="171.296" y1="131.695" x2="250.296" y2="131.695"/>
				<polyline fill="none" stroke="#000000" stroke-linecap="square" stroke-miterlimit="10" points="251.296,131.695 
					260.296,131.695 260.296,122.695 				"/>
				
					<line fill="none" stroke="#000000" stroke-linecap="square" stroke-miterlimit="10" stroke-dasharray="18,2" x1="260.296" y1="120.695" x2="260.296" y2="41.695"/>
				<polyline fill="none" stroke="#000000" stroke-linecap="square" stroke-miterlimit="10" points="260.296,40.695 260.296,31.695 
					251.296,31.695 				"/>
				
					<line fill="none" stroke="#000000" stroke-linecap="square" stroke-miterlimit="10" stroke-dasharray="18,2" x1="249.296" y1="31.695" x2="170.296" y2="31.695"/>
				<polyline fill="none" stroke="#000000" stroke-linecap="square" stroke-miterlimit="10" points="169.296,31.695 160.296,31.695 
					160.296,40.695 				"/>
				
					<line fill="none" stroke="#000000" stroke-linecap="square" stroke-miterlimit="10" stroke-dasharray="18,2" x1="160.296" y1="42.695" x2="160.296" y2="121.695"/>
			</g>
		</g>
		<g>
			<g>
				<polyline fill="none" stroke="#000000" stroke-linecap="square" stroke-miterlimit="10" points="264.3,122.695 264.3,131.695 
					273.3,131.695 				"/>
				
					<line fill="none" stroke="#000000" stroke-linecap="square" stroke-miterlimit="10" stroke-dasharray="18,2" x1="275.3" y1="131.695" x2="354.3" y2="131.695"/>
				<polyline fill="none" stroke="#000000" stroke-linecap="square" stroke-miterlimit="10" points="355.3,131.695 364.3,131.695 
					364.3,122.695 				"/>
				
					<line fill="none" stroke="#000000" stroke-linecap="square" stroke-miterlimit="10" stroke-dasharray="18,2" x1="364.3" y1="120.695" x2="364.3" y2="41.695"/>
				<polyline fill="none" stroke="#000000" stroke-linecap="square" stroke-miterlimit="10" points="364.3,40.695 364.3,31.695 
					355.3,31.695 				"/>
				
					<line fill="none" stroke="#000000" stroke-linecap="square" stroke-miterlimit="10" stroke-dasharray="18,2" x1="353.3" y1="31.695" x2="274.3" y2="31.695"/>
				<polyline fill="none" stroke="#000000" stroke-linecap="square" stroke-miterlimit="10" points="273.3,31.695 264.3,31.695 
					264.3,40.695 				"/>
				
					<line fill="none" stroke="#000000" stroke-linecap="square" stroke-miterlimit="10" stroke-dasharray="18,2" x1="264.3" y1="42.695" x2="264.3" y2="121.695"/>
			</g>
		</g>
		<g>
			<g>
				<polyline fill="none" stroke="#000000" stroke-linecap="square" stroke-miterlimit="10" points="377.294,31.695 368.294,31.695 
					368.294,40.695 				"/>
				
					<line fill="none" stroke="#000000" stroke-linecap="square" stroke-miterlimit="10" stroke-dasharray="18,2" x1="368.294" y1="42.695" x2="368.294" y2="121.695"/>
				<polyline fill="none" stroke="#000000" stroke-linecap="square" stroke-miterlimit="10" points="368.294,122.695 
					368.294,131.695 377.294,131.695 				"/>
				
					<line fill="none" stroke="#000000" stroke-linecap="square" stroke-miterlimit="10" stroke-dasharray="18,2" x1="379.294" y1="131.695" x2="458.294" y2="131.695"/>
				<polyline fill="none" stroke="#000000" stroke-linecap="square" stroke-miterlimit="10" points="459.294,131.695 
					468.294,131.695 468.294,122.695 				"/>
				
					<line fill="none" stroke="#000000" stroke-linecap="square" stroke-miterlimit="10" stroke-dasharray="18,2" x1="468.294" y1="120.695" x2="468.294" y2="41.695"/>
				<polyline fill="none" stroke="#000000" stroke-linecap="square" stroke-miterlimit="10" points="468.294,40.695 468.294,31.695 
					459.294,31.695 				"/>
				
					<line fill="none" stroke="#000000" stroke-linecap="square" stroke-miterlimit="10" stroke-dasharray="18,2" x1="457.294" y1="31.695" x2="378.294" y2="31.695"/>
			</g>
		</g>
	</g>
</g>
<g id="text">
	<g>
		<g>
			<polygon points="98.902,18.286 99.415,17.229 98.78,17.229 98.78,14.905 100.656,14.905 100.656,17.037 100.051,18.286 			"/>
			<path fill="#FFFFFF" d="M100.406,15.155v1.825l-0.512,1.056h-0.593l0.513-1.056H99.03v-1.825H100.406 M100.906,14.655h-0.5H99.03
				h-0.5v0.5v1.825v0.5h0.486l-0.164,0.338l-0.349,0.718h0.798h0.593h0.313l0.137-0.282l0.512-1.057l0.05-0.103v-0.115v-1.825
				V14.655L100.906,14.655z"/>
		</g>
		<g>
			<polygon points="105.148,28.482 105.131,14.905 110.658,14.905 110.658,16.461 106.688,16.461 106.688,21.179 110.225,21.179 
				110.225,22.576 106.688,22.576 106.688,28.482 			"/>
			<path fill="#FFFFFF" d="M110.408,15.155v1.056h-3.97v5.218h3.537v0.896h-3.537v5.906h-1.04l-0.017-13.077H110.408
				 M110.908,14.655h-0.5h-5.026h-0.5l0,0.5l0.017,13.077l0,0.5h0.5h1.04h0.5v-0.5v-5.406h3.037h0.5v-0.5v-0.896v-0.5h-0.5h-3.037
				v-4.218h3.47h0.5v-0.5v-1.056V14.655L110.908,14.655z"/>
		</g>
	</g>
	<g>
		<g>
			<polygon points="171.708,20.783 171.576,20.031 171.445,20.783 169.843,20.783 170.869,14.905 172.296,14.905 173.322,20.783 			
				"/>
			<path fill="#FFFFFF" d="M172.086,15.155l0.938,5.378h-1.106l-0.343-1.953l-0.34,1.953h-1.094l0.938-5.378H172.086
				 M172.507,14.655h-0.42h-1.008h-0.42l-0.072,0.414l-0.938,5.378l-0.102,0.586h0.595h1.094h0.42h0.263h1.106h0.595l-0.102-0.586
				l-0.938-5.378L172.507,14.655L172.507,14.655z"/>
		</g>
		<g>
			<polygon points="174.146,20.783 175.074,14.905 176.666,14.905 175.796,20.783 			"/>
			<path fill="#FFFFFF" d="M176.376,15.155l-0.796,5.378h-1.141l0.849-5.378H176.376 M176.956,14.655h-0.58h-1.089h-0.427
				l-0.066,0.422l-0.849,5.378l-0.091,0.578h0.585h1.141h0.432l0.063-0.427l0.796-5.378L176.956,14.655L176.956,14.655z"/>
		</g>
		<g>
			<polygon points="173.061,28.482 171.777,21.179 173.391,21.179 173.755,23.265 174.083,21.179 175.737,21.179 174.656,28.482 			
				"/>
			<path fill="#FFFFFF" d="M175.447,21.429l-1.007,6.803h-1.169l-1.196-6.803h1.105l0.586,3.361l0.53-3.361H175.447 M176.027,20.929
				h-0.58h-1.15h-0.427l-0.066,0.422l-0.062,0.388l-0.069-0.396l-0.072-0.414h-0.42h-1.105h-0.596l0.103,0.586l1.196,6.803
				l0.073,0.414h0.42h1.169h0.432l0.063-0.427l1.007-6.803L176.027,20.929L176.027,20.929z"/>
		</g>
		<g>
			<polygon points="167.369,20.783 166.499,14.905 168.091,14.905 169.019,20.783 			"/>
			<path fill="#FFFFFF" d="M167.877,15.155l0.849,5.378h-1.141l-0.796-5.378H167.877 M168.305,14.655h-0.427h-1.089h-0.58
				l0.085,0.573l0.796,5.378l0.063,0.427h0.432h1.141h0.585l-0.091-0.578l-0.849-5.378L168.305,14.655L168.305,14.655z"/>
		</g>
		<g>
			<polygon points="168.509,28.482 167.428,21.179 169.082,21.179 169.41,23.265 169.774,21.179 171.376,21.179 170.104,28.482 			
				"/>
			<path fill="#FFFFFF" d="M171.079,21.429l-1.185,6.803h-1.169l-1.007-6.803h1.15l0.53,3.361l0.586-3.361H171.079 M171.673,20.929
				h-0.595h-1.094h-0.42l-0.072,0.414l-0.069,0.396l-0.062-0.388l-0.066-0.422h-0.427h-1.15h-0.58l0.085,0.573l1.007,6.803
				l0.063,0.427h0.432h1.169h0.42l0.072-0.414l1.185-6.803L171.673,20.929L171.673,20.929z"/>
		</g>
		<g>
			<polygon points="177.713,20.783 177.706,14.905 179.327,14.905 179.327,20.783 			"/>
			<path fill="#FFFFFF" d="M179.077,15.155v5.378h-1.114l-0.006-5.378H179.077 M179.577,14.655h-0.5h-1.12h-0.5l0,0.5l0.006,5.378
				l0,0.5h0.5h1.114h0.5v-0.5v-5.378V14.655L179.577,14.655z"/>
		</g>
		<g>
			<polygon points="177.723,28.482 177.713,21.179 179.327,21.179 179.327,28.482 			"/>
			<path fill="#FFFFFF" d="M179.077,21.429v6.803h-1.104l-0.008-6.803H179.077 M179.577,20.929h-0.5h-1.113h-0.5l0,0.5l0.008,6.803
				l0,0.5h0.5h1.104h0.5v-0.5v-6.803V20.929L179.577,20.929z"/>
		</g>
		<g>
			<polygon points="186.147,28.482 182.912,21.179 184.574,21.179 187.714,28.482 			"/>
			<path fill="#FFFFFF" d="M184.409,21.429l2.925,6.803h-1.024l-3.014-6.803H184.409 M184.738,20.929h-0.329h-1.113h-0.769
				l0.312,0.703l3.014,6.803l0.132,0.297h0.325h1.024h0.759l-0.3-0.698l-2.925-6.803L184.738,20.929L184.738,20.929z"/>
		</g>
		<g>
			<polygon points="180.689,20.783 180.682,14.905 182.239,14.905 182.239,20.783 			"/>
			<path fill="#FFFFFF" d="M181.989,15.155v5.378h-1.05l-0.007-5.378H181.989 M182.489,14.655h-0.5h-1.057h-0.5l0,0.5l0.007,5.378
				l0,0.5h0.5h1.05h0.5v-0.5v-5.378V14.655L182.489,14.655z"/>
		</g>
		<g>
			<polygon points="180.699,28.482 180.689,21.179 183.338,21.179 182.239,22.557 182.239,28.482 			"/>
			<path fill="#FFFFFF" d="M182.819,21.429l-0.83,1.041v5.762h-1.04l-0.009-6.803H182.819 M183.857,20.929h-1.039h-1.879h-0.5l0,0.5
				l0.009,6.803l0,0.5h0.5h1.04h0.5v-0.5v-5.587l0.721-0.903L183.857,20.929L183.857,20.929z"/>
		</g>
		<g>
			<path d="M181.837,20.783l0.692-0.929c1.204-1.616,2.476-3.324,3.63-4.85l0.075-0.099h1.917l-3.972,5.357l0.224,0.521H181.837z"/>
			<path fill="#FFFFFF" d="M187.655,15.155l-3.762,5.074l0.131,0.304h-1.689c1.317-1.768,2.743-3.685,4.024-5.378H187.655
				 M188.648,14.655h-0.993h-1.296h-0.249l-0.15,0.198c-1.155,1.527-2.428,3.236-3.633,4.853l-0.393,0.528l-0.595,0.799h0.996h1.689
				h0.759l-0.3-0.698l-0.018-0.04l3.591-4.843L188.648,14.655L188.648,14.655z"/>
		</g>
		<g>
			<polygon points="188.923,28.482 188.914,21.179 190.527,21.179 190.527,28.482 			"/>
			<path fill="#FFFFFF" d="M190.277,21.429v6.803h-1.104l-0.008-6.803H190.277 M190.777,20.929h-0.5h-1.113h-0.5l0,0.5l0.008,6.803
				l0,0.5h0.5h1.104h0.5v-0.5v-6.803V20.929L190.777,20.929z"/>
		</g>
		<g>
			<polygon points="188.914,20.783 188.906,14.905 190.527,14.905 190.527,20.783 			"/>
			<path fill="#FFFFFF" d="M190.277,15.155v5.378h-1.114l-0.006-5.378H190.277 M190.777,14.655h-0.5h-1.12h-0.5l0,0.5l0.006,5.378
				l0,0.5h0.5h1.114h0.5v-0.5v-5.378V14.655L190.777,14.655z"/>
		</g>
		<g>
			<g>
				<path d="M115.261,20.783l0.176-0.36c0.086-0.175,0.129-0.354,0.129-0.53V17.94c0-0.83-0.432-1.479-0.982-1.479h-1.943v4.322
					h-1.565l-0.007-5.878h3.036c1.682,0,3.051,1.361,3.051,3.035v1.953c0,0.224-0.046,0.454-0.145,0.726l-0.06,0.165H115.261z"/>
				<path fill="#FFFFFF" d="M114.103,15.155c1.536,0,2.801,1.249,2.801,2.785v1.953c0,0.216-0.053,0.43-0.13,0.64h-1.113
					c0.097-0.199,0.155-0.416,0.155-0.64V17.94c0-0.977-0.545-1.729-1.232-1.729h-2.193v4.322h-1.066l-0.006-5.378H114.103
					 M114.103,14.655h-2.785h-0.5l0,0.5l0.006,5.378l0,0.5h0.5h1.066h0.5v-0.5v-3.822h1.693c0.397,0,0.732,0.563,0.732,1.229v1.953
					c0,0.138-0.035,0.279-0.104,0.42l-0.352,0.72h0.801h1.113h0.35l0.12-0.329c0.108-0.296,0.16-0.562,0.16-0.812V17.94
					C117.404,16.128,115.923,14.655,114.103,14.655L114.103,14.655z"/>
			</g>
			<g>
				<path d="M115.694,28.482v-4.524c0-0.715-0.72-1.367-1.511-1.367h-1.543v5.891h-1.556l-0.009-7.303h1.565v0.016l1.531,0
					l0.137-0.015l2.486-0.001L116.4,21.6c-0.076,0.081-0.156,0.159-0.24,0.234c0.698,0.562,1.106,1.336,1.106,2.124v4.524H115.694z"
					/>
				<path fill="#FFFFFF" d="M116.218,21.429c-0.14,0.149-0.296,0.289-0.466,0.416c0.801,0.528,1.265,1.329,1.265,2.113v4.274h-1.072
					v-4.274c0-0.864-0.833-1.617-1.761-1.617h-1.793v5.891h-1.057l-0.008-6.803h1.065v0.016h1.776c0.057,0,0.11-0.011,0.166-0.016
					H116.218 M117.37,20.929h-1.152h-1.886l-0.12,0.011l-1.363,0.004l-0.458-0.015h-1.065h-0.5l0,0.5l0.008,6.803l0,0.5h0.5h1.057
					h0.5v-0.5v-5.391h1.293c0.66,0,1.261,0.532,1.261,1.117v4.274v0.5h0.5h1.072h0.5v-0.5v-4.274c0-0.779-0.36-1.543-0.985-2.132
					c0.018-0.018,0.035-0.037,0.052-0.055L117.37,20.929L117.37,20.929z"/>
			</g>
			<g>
				<path d="M121.735,28.578c-1.895,0-3.45-1.296-3.467-2.889v-4.51h1.556v4.508c0,0.753,0.857,1.367,1.911,1.367
					s1.911-0.613,1.911-1.367v-4.508h1.557v4.508C125.203,27.281,123.647,28.578,121.735,28.578z"/>
				<path fill="#FFFFFF" d="M124.953,21.429v4.258c0,1.504-1.505,2.641-3.218,2.641c-1.681,0-3.201-1.137-3.217-2.641v-4.258h1.056
					v4.258c0,0.944,1.041,1.617,2.161,1.617c1.137,0,2.161-0.672,2.161-1.617v-4.258H124.953 M125.453,20.929h-0.5h-1.057h-0.5v0.5
					v4.258c0,0.605-0.761,1.117-1.661,1.117s-1.661-0.511-1.661-1.117v-4.258v-0.5h-0.5h-1.056h-0.5v0.5v4.258
					c0.018,1.734,1.686,3.141,3.717,3.141c2.05,0,3.718-1.409,3.718-3.141v-4.258V20.929L125.453,20.929z"/>
			</g>
			<g>
				<path d="M123.646,20.783v-2.987c0-0.753-0.857-1.367-1.911-1.367s-1.911,0.613-1.911,1.367v2.987h-1.556v-2.987
					c0-1.594,1.555-2.891,3.467-2.891c1.912,0,3.468,1.297,3.468,2.891v2.987H123.646z"/>
				<path fill="#FFFFFF" d="M121.735,15.155c1.713,0,3.218,1.136,3.218,2.641v2.737h-1.057v-2.737c0-0.944-1.024-1.617-2.161-1.617
					c-1.12,0-2.161,0.672-2.161,1.617v2.737h-1.056v-2.737C118.518,16.291,120.054,15.155,121.735,15.155 M121.735,14.655
					c-2.049,0-3.717,1.409-3.717,3.141v2.737v0.5h0.5h1.056h0.5v-0.5v-2.737c0-0.605,0.761-1.117,1.661-1.117
					s1.661,0.511,1.661,1.117v2.737v0.5h0.5h1.057h0.5v-0.5v-2.737C125.453,16.064,123.785,14.655,121.735,14.655L121.735,14.655z"
					/>
			</g>
			<g>
				<polygon points="128.474,20.783 127.824,19.085 127.824,20.783 126.275,20.783 126.268,14.905 127.875,14.905 130.078,20.783 
									"/>
				<path fill="#FFFFFF" d="M127.702,15.155l2.015,5.378h-1.071l-1.072-2.801v2.801h-1.049l-0.006-5.378H127.702 M128.048,14.655
					h-0.347h-1.184h-0.5l0,0.5l0.006,5.378l0,0.5h0.5h1.049h0.5v-0.5v-0.095l0.105,0.274l0.123,0.321h0.344h1.071h0.721
					l-0.253-0.675l-2.015-5.378L128.048,14.655L128.048,14.655z"/>
			</g>
			<g>
				<polygon points="126.284,28.482 126.275,21.179 127.824,21.179 127.824,28.482 				"/>
				<path fill="#FFFFFF" d="M127.574,21.429v6.803h-1.04l-0.008-6.803H127.574 M128.074,20.929h-0.5h-1.048h-0.5l0,0.5l0.008,6.803
					l0,0.5h0.5h1.04h0.5v-0.5v-6.803V20.929L128.074,20.929z"/>
			</g>
			<g>
				<polygon points="131.419,28.482 128.625,21.179 130.226,21.179 131.23,23.859 131.23,21.179 132.786,21.179 132.786,28.482 				
					"/>
				<path fill="#FFFFFF" d="M132.536,21.429v6.803h-0.944l-2.603-6.803h1.064l1.427,3.81v-3.81H132.536 M133.036,20.929h-0.5h-1.056
					h-0.5v0.5v1.05l-0.459-1.225l-0.122-0.325h-0.347h-1.064h-0.727l0.26,0.679l2.603,6.803l0.123,0.321h0.344h0.944h0.5v-0.5
					v-6.803V20.929L133.036,20.929z"/>
			</g>
			<g>
				<rect x="131.23" y="14.905" width="1.556" height="5.878"/>
				<path fill="#FFFFFF" d="M132.536,15.155v5.378h-1.056v-5.378H132.536 M133.036,14.655h-0.5h-1.056h-0.5v0.5v5.378v0.5h0.5h1.056
					h0.5v-0.5v-5.378V14.655L133.036,14.655z"/>
			</g>
			<g>
				<polygon points="136.059,20.783 136.059,16.461 133.722,16.461 133.722,14.905 139.889,14.905 139.889,16.461 137.616,16.461 
					137.616,20.783 				"/>
				<path fill="#FFFFFF" d="M139.639,15.155v1.056h-2.273v4.322h-1.057v-4.322h-2.337v-1.056H139.639 M140.139,14.655h-0.5h-5.667
					h-0.5v0.5v1.056v0.5h0.5h1.837v3.822v0.5h0.5h1.057h0.5v-0.5v-3.822h1.773h0.5v-0.5v-1.056V14.655L140.139,14.655z"/>
			</g>
			<g>
				<rect x="136.059" y="21.179" width="1.557" height="7.303"/>
				<path fill="#FFFFFF" d="M137.366,21.429v6.803h-1.057v-6.803H137.366 M137.866,20.929h-0.5h-1.057h-0.5v0.5v6.803v0.5h0.5h1.057
					h0.5v-0.5v-6.803V20.929L137.866,20.929z"/>
			</g>
			<g>
				<polygon points="141.052,28.482 141.042,21.179 142.591,21.179 142.591,26.925 145.808,26.925 145.808,28.482 				"/>
				<path fill="#FFFFFF" d="M142.341,21.429v5.746h3.217v1.057h-4.257l-0.009-6.803H142.341 M142.841,20.929h-0.5h-1.049h-0.5l0,0.5
					l0.009,6.803l0,0.5h0.5h4.257h0.5v-0.5v-1.057v-0.5h-0.5h-2.717v-5.246V20.929L142.841,20.929z"/>
			</g>
			<g>
				<polygon points="141.042,20.783 141.034,14.905 142.591,14.905 142.591,20.783 				"/>
				<path fill="#FFFFFF" d="M142.341,15.155v5.378h-1.05l-0.007-5.378H142.341 M142.841,14.655h-0.5h-1.057h-0.5l0,0.5l0.007,5.378
					l0,0.5h0.5h1.05h0.5v-0.5v-5.378V14.655L142.841,14.655z"/>
			</g>
			<g>
				<polygon points="146.69,20.783 146.683,14.905 148.303,14.905 148.303,20.783 				"/>
				<path fill="#FFFFFF" d="M148.053,15.155v5.378h-1.114l-0.006-5.378H148.053 M148.553,14.655h-0.5h-1.12h-0.5l0,0.5l0.006,5.378
					l0,0.5h0.5h1.114h0.5v-0.5v-5.378V14.655L148.553,14.655z"/>
			</g>
			<g>
				<polygon points="146.699,28.482 146.69,21.179 148.303,21.179 148.303,28.482 				"/>
				<path fill="#FFFFFF" d="M148.053,21.429v6.803h-1.104l-0.008-6.803H148.053 M148.553,20.929h-0.5h-1.113h-0.5l0,0.5l0.008,6.803
					l0,0.5h0.5h1.104h0.5v-0.5v-6.803V20.929L148.553,20.929z"/>
			</g>
			<g>
				<polygon points="149.691,28.482 149.682,21.179 151.231,21.179 151.231,28.482 				"/>
				<path fill="#FFFFFF" d="M150.981,21.429v6.803h-1.04l-0.008-6.803H150.981 M151.481,20.929h-0.5h-1.048h-0.5l0,0.5l0.008,6.803
					l0,0.5h0.5h1.04h0.5v-0.5v-6.803V20.929L151.481,20.929z"/>
			</g>
			<g>
				<rect x="154.637" y="14.905" width="1.556" height="5.878"/>
				<path fill="#FFFFFF" d="M155.943,15.155v5.378h-1.056v-5.378H155.943 M156.443,14.655h-0.5h-1.056h-0.5v0.5v5.378v0.5h0.5h1.056
					h0.5v-0.5v-5.378V14.655L156.443,14.655z"/>
			</g>
			<g>
				<polygon points="151.881,20.783 151.231,19.085 151.231,20.783 149.682,20.783 149.675,14.905 151.282,14.905 153.485,20.783 
									"/>
				<path fill="#FFFFFF" d="M151.109,15.155l2.015,5.378h-1.071l-1.072-2.801v2.801h-1.049l-0.006-5.378H151.109 M151.456,14.655
					h-0.347h-1.184h-0.5l0,0.5l0.006,5.378l0,0.5h0.5h1.049h0.5v-0.5v-0.095l0.105,0.274l0.123,0.321h0.344h1.071h0.721
					l-0.253-0.675l-2.015-5.378L151.456,14.655L151.456,14.655z"/>
			</g>
			<g>
				<polygon points="154.827,28.482 152.032,21.179 153.633,21.179 154.637,23.859 154.637,21.179 156.193,21.179 156.193,28.482 
									"/>
				<path fill="#FFFFFF" d="M155.943,21.429v6.803h-0.944l-2.603-6.803h1.064l1.427,3.81v-3.81H155.943 M156.443,20.929h-0.5h-1.056
					h-0.5v0.5v1.05l-0.459-1.225l-0.122-0.325h-0.347h-1.064h-0.727l0.26,0.679l2.603,6.803l0.123,0.321h0.344h0.944h0.5v-0.5
					v-6.803V20.929L156.443,20.929z"/>
			</g>
			<g>
				<g>
					<polygon points="157.282,20.783 157.274,14.905 162.801,14.905 162.801,16.461 158.832,16.461 158.832,20.783 					"/>
					<path fill="#FFFFFF" d="M162.551,15.155v1.056h-3.97v4.322h-1.05l-0.006-5.378H162.551 M163.051,14.655h-0.5h-5.026h-0.5l0,0.5
						l0.006,5.378l0,0.5h0.5h1.05h0.5v-0.5v-3.822h3.47h0.5v-0.5v-1.056V14.655L163.051,14.655z"/>
				</g>
				<g>
					<polygon points="157.291,28.482 157.282,21.179 162.369,21.179 162.369,22.576 158.832,22.576 158.832,26.925 162.801,26.925 
						162.801,28.482 					"/>
					<path fill="#FFFFFF" d="M162.119,21.429v0.896h-3.537v4.85h3.97v1.057h-5.011l-0.008-6.803h1.049H162.119 M162.619,20.929h-0.5
						h-3.537h-1.049h-0.5l0,0.5l0.008,6.803l0,0.5h0.5h5.011h0.5v-0.5v-1.057v-0.5h-0.5h-3.47v-3.85h3.037h0.5v-0.5v-0.896V20.929
						L162.619,20.929z"/>
				</g>
			</g>
			<g>
				<g>
					<polygon points="75.54,20.783 75.532,14.905 77.153,14.905 77.153,20.783 					"/>
					<path fill="#FFFFFF" d="M76.903,15.155v5.378h-1.114l-0.006-5.378H76.903 M77.403,14.655h-0.5h-1.12h-0.5l0,0.5l0.006,5.378
						l0,0.5h0.5h1.114h0.5v-0.5v-5.378V14.655L77.403,14.655z"/>
				</g>
				<g>
					<polygon points="75.549,28.482 75.54,21.179 77.153,21.179 77.153,28.482 					"/>
					<path fill="#FFFFFF" d="M76.903,21.429v6.803h-1.104l-0.008-6.803H76.903 M77.403,20.929h-0.5H75.79h-0.5l0,0.5l0.008,6.803
						l0,0.5h0.5h1.104h0.5v-0.5v-6.803V20.929L77.403,20.929z"/>
				</g>
				<g>
					<path d="M83.167,28.482v-4.524c0-0.715-0.72-1.367-1.511-1.367h-1.543v5.891h-1.556l-0.009-7.303h1.565v0.016l1.531,0
						l0.137-0.015l2.486-0.001L83.873,21.6c-0.076,0.081-0.156,0.159-0.24,0.234c0.698,0.562,1.106,1.336,1.106,2.124v4.524H83.167z
						"/>
					<path fill="#FFFFFF" d="M83.69,21.429c-0.14,0.149-0.296,0.289-0.466,0.416c0.801,0.528,1.265,1.329,1.265,2.113v4.274h-1.072
						v-4.274c0-0.864-0.833-1.617-1.761-1.617h-1.793v5.891h-1.057l-0.008-6.803h1.065v0.016h1.776c0.057,0,0.11-0.011,0.166-0.016
						H83.69 M84.842,20.929H83.69h-1.886l-0.12,0.011l-1.363,0.004l-0.458-0.015h-1.065h-0.5l0,0.5l0.008,6.803l0,0.5h0.5h1.057h0.5
						v-0.5v-5.391h1.293c0.66,0,1.261,0.532,1.261,1.117v4.274v0.5h0.5h1.072h0.5v-0.5v-4.274c0-0.779-0.36-1.543-0.985-2.132
						c0.018-0.018,0.035-0.037,0.052-0.055L84.842,20.929L84.842,20.929z"/>
				</g>
				<g>
					<path d="M82.733,20.783l0.176-0.36c0.086-0.175,0.129-0.354,0.129-0.53V17.94c0-0.83-0.432-1.479-0.982-1.479h-1.943v4.322
						h-1.565l-0.007-5.878h3.036c1.682,0,3.051,1.361,3.051,3.035v1.953c0,0.224-0.046,0.454-0.145,0.726l-0.06,0.165H82.733z"/>
					<path fill="#FFFFFF" d="M81.576,15.155c1.536,0,2.801,1.249,2.801,2.785v1.953c0,0.216-0.053,0.43-0.13,0.64h-1.113
						c0.097-0.199,0.155-0.416,0.155-0.64V17.94c0-0.977-0.545-1.729-1.232-1.729h-2.193v4.322h-1.066l-0.006-5.378H81.576
						 M81.576,14.655h-2.785h-0.5l0,0.5l0.006,5.378l0,0.5h0.5h1.066h0.5v-0.5v-3.822h1.693c0.397,0,0.732,0.563,0.732,1.229v1.953
						c0,0.138-0.035,0.279-0.104,0.42l-0.352,0.72h0.801h1.113h0.35l0.12-0.329c0.108-0.296,0.16-0.562,0.16-0.812V17.94
						C84.876,16.128,83.396,14.655,81.576,14.655L81.576,14.655z"/>
				</g>
				<g>
					<polygon points="85.939,20.783 85.932,14.905 87.489,14.905 87.489,20.783 					"/>
					<path fill="#FFFFFF" d="M87.239,15.155v5.378h-1.05l-0.007-5.378H87.239 M87.739,14.655h-0.5h-1.057h-0.5l0,0.5l0.007,5.378
						l0,0.5h0.5h1.05h0.5v-0.5v-5.378V14.655L87.739,14.655z"/>
				</g>
				<g>
					<polygon points="85.949,28.482 85.939,21.179 87.489,21.179 87.489,26.925 90.706,26.925 90.706,28.482 					"/>
					<path fill="#FFFFFF" d="M87.239,21.429v5.746h3.217v1.057h-4.257l-0.009-6.803H87.239 M87.739,20.929h-0.5H86.19h-0.5l0,0.5
						l0.009,6.803l0,0.5h0.5h4.257h0.5v-0.5v-1.057v-0.5h-0.5h-2.717v-5.246V20.929L87.739,20.929z"/>
				</g>
				<g>
					<path d="M91.401,20.783l-0.057-0.172c-0.09-0.275-0.132-0.514-0.132-0.75v-1.92c0-1.674,1.434-3.035,3.195-3.035
						c1.753,0,3.179,1.361,3.179,3.035v1.563h-1.556V17.94c0-0.802-0.743-1.479-1.623-1.479c-0.895,0-1.623,0.664-1.623,1.479v1.92
						c0,0.187,0.058,0.36,0.176,0.529l0.274,0.393H91.401z"/>
					<path fill="#FFFFFF" d="M94.408,15.155c1.633,0,2.929,1.249,2.929,2.785v1.313h-1.056V17.94c0-0.977-0.881-1.729-1.873-1.729
						c-1.072,0-1.873,0.816-1.873,1.729v1.92c0,0.255,0.085,0.478,0.221,0.672h-1.173c-0.07-0.213-0.12-0.435-0.12-0.672v-1.92
						C91.462,16.403,92.775,15.155,94.408,15.155 M94.408,14.655c-1.9,0-3.445,1.474-3.445,3.285v1.92
						c0,0.264,0.046,0.527,0.145,0.828l0.113,0.344h0.362h1.173h0.958l-0.548-0.786c-0.088-0.126-0.131-0.253-0.131-0.387v-1.92
						c0-0.678,0.616-1.229,1.373-1.229c0.744,0,1.373,0.563,1.373,1.229v1.313v0.5h0.5h1.056h0.5v-0.5V17.94
						C97.836,16.128,96.298,14.655,94.408,14.655L94.408,14.655z"/>
				</g>
				<g>
					<path d="M94.408,28.546c-1.745,0-3.178-1.36-3.195-3.033v-1.517h1.557v1.515c0,0.774,0.781,1.479,1.639,1.479
						c0.886,0,1.606-0.664,1.606-1.479v-1.873c0-0.577-0.735-1.047-1.639-1.047c-0.931,0-1.814-0.36-2.423-0.988l-0.412-0.424h3.576
						c1.523,0.356,2.47,1.319,2.47,2.459v1.873C97.586,27.185,96.161,28.546,94.408,28.546z"/>
					<path fill="#FFFFFF" d="M95.117,21.429c1.203,0.287,2.22,1.074,2.22,2.209v1.873c0,1.537-1.328,2.785-2.929,2.785
						c-1.633,0-2.93-1.249-2.945-2.785v-1.265h1.057v1.265c0,0.913,0.88,1.729,1.889,1.729c1.057,0,1.856-0.816,1.856-1.729v-1.873
						c0-0.769-0.896-1.297-1.889-1.297c-0.886,0-1.7-0.352-2.244-0.912H95.117 M95.176,20.929h-0.059h-2.985H90.95l0.823,0.848
						c0.656,0.676,1.604,1.064,2.603,1.064c0.753,0,1.389,0.365,1.389,0.797v1.873c0,0.678-0.608,1.229-1.356,1.229
						c-0.727,0-1.389-0.586-1.389-1.229v-1.265v-0.5h-0.5h-1.057h-0.5v0.5v1.265c0.019,1.813,1.564,3.285,3.445,3.285
						c1.891,0,3.429-1.474,3.429-3.285v-1.873c0-1.26-1.022-2.318-2.604-2.695L95.176,20.929L95.176,20.929z"/>
				</g>
				<g>
					<g>
						<path d="M67.533,20.783v-2.875c0-1.628,1.609-3.003,3.515-3.003c1.762,0,3.195,1.347,3.195,3.003v2.139h-1.557v-2.139
							c0-0.757-0.781-1.447-1.639-1.447c-1.017,0-1.942,0.689-1.942,1.447v2.875H67.533z"/>
						<path fill="#FFFFFF" d="M71.047,15.155c1.601,0,2.945,1.232,2.945,2.753v1.889h-1.057v-1.889c0-0.896-0.896-1.697-1.889-1.697
							c-1.152,0-2.192,0.8-2.192,1.697v2.625h-1.072v-2.625C67.783,16.387,69.303,15.155,71.047,15.155 M71.047,14.655
							c-2.041,0-3.765,1.49-3.765,3.253v2.625v0.5h0.5h1.072h0.5v-0.5v-2.625c0-0.615,0.822-1.197,1.692-1.197
							c0.714,0,1.389,0.582,1.389,1.197v1.889v0.5h0.5h1.057h0.5v-0.5v-1.889C74.493,16.114,72.947,14.655,71.047,14.655
							L71.047,14.655z"/>
					</g>
					<g>
						<path d="M71.047,28.594c-1.921,0-3.498-1.295-3.515-2.888v-4.526h1.572v4.524c0,0.817,1.004,1.366,1.942,1.366
							c0.792,0,1.639-0.549,1.639-1.366v-3.176h-1.633v-1.348h3.189v4.524C74.243,27.297,72.809,28.594,71.047,28.594z"/>
						<path fill="#FFFFFF" d="M73.993,21.429v4.274c0,1.504-1.408,2.641-2.945,2.641c-1.696,0-3.249-1.136-3.265-2.641v-4.274h1.072
							v4.274c0,0.944,1.072,1.616,2.192,1.616c0.961,0,1.889-0.672,1.889-1.616v-3.426h-1.633v-0.848H73.993 M74.493,20.929h-0.5
							h-2.689h-0.5v0.5v0.848v0.5h0.5h1.133v2.926c0,0.667-0.718,1.116-1.389,1.116c-0.901,0-1.692-0.521-1.692-1.116v-4.274v-0.5
							h-0.5h-1.072h-0.5v0.5v4.274c0.018,1.734,1.707,3.141,3.765,3.141c1.9,0,3.445-1.409,3.445-3.141v-4.274V20.929L74.493,20.929
							z"/>
					</g>
				</g>
			</g>
		</g>
	</g>
</g>
<g id="blackfill">
	<g>
		<rect x="162.298" y="61.197" width="8.999" height="68.496"/>
		<polygon points="186.297,129.693 193.299,129.693 193.299,94.84 186.297,93.219 		"/>
		<rect x="250.296" y="33.697" width="7.998" height="12.5"/>
		<polygon points="162.298,53.697 186.297,53.697 186.297,46.197 171.297,42.716 171.297,33.697 162.298,33.697 		"/>
		<rect x="186.297" y="33.697" width="48.999" height="12.5"/>
		<path d="M208.299,69.322v7.002l-22.002-5.107v3.999l22.002,5.103v7.002l-22.002-5.103v3.999l22.002,5.107v38.369h26.997V66.197h15
			v63.496h7.998V61.197h-84.995L208.299,69.322z M214.3,70.714l15,3.481v37.002h-15V70.714z"/>
		<polygon points="370.296,38.492 399.056,33.697 370.296,33.697 		"/>
		<polygon points="370.296,56.197 385.296,56.197 385.296,51.197 370.296,53.697 		"/>
		<polygon points="370.296,129.693 372.298,71.197 382.308,71.197 380.306,129.693 385.296,129.693 385.296,66.197 370.296,66.197 
					"/>
		<rect x="460.296" y="114.693" width="6.006" height="15"/>
		<rect x="460.296" y="33.697" width="6.006" height="70.996"/>
		<path d="M415.296,46.197l-15,2.5v7.5h15v10h-15v63.496h4.99l-1.992-58.496h10l2.002,58.496h30v-15h-26.992v-10h26.992V33.697h-30
			V46.197z M437.298,36.695l4.17,25h-15.205l-4.17-25H437.298z M435.296,71.695l4.17,25h-15.205l-4.17-25H435.296z"/>
		<polygon points="266.302,129.693 362.298,129.693 362.298,50.699 316.673,50.699 315.335,58.697 358.304,58.697 358.304,127.701 
			272.298,127.701 272.298,58.697 300.13,58.697 301.458,50.699 268.294,50.699 268.294,35.694 362.298,35.694 362.298,33.697 
			266.302,33.697 		"/>
		<rect x="287.298" y="97.701" width="56.006" height="15"/>
		<rect x="287.298" y="73.697" width="56.006" height="16.504"/>
	</g>
</g>
</svg>
